<?xml version="1.0" encoding="UTF-8" standalone="no"?>
<svg
   xmlns:dc="http://purl.org/dc/elements/1.1/"
   xmlns:cc="http://creativecommons.org/ns#"
   xmlns:rdf="http://www.w3.org/1999/02/22-rdf-syntax-ns#"
   xmlns:svg="http://www.w3.org/2000/svg"
   xmlns="http://www.w3.org/2000/svg"
   xmlns:sodipodi="http://sodipodi.sourceforge.net/DTD/sodipodi-0.dtd"
   xmlns:inkscape="http://www.inkscape.org/namespaces/inkscape"
   width="100"
   height="100"
   viewBox="0 0 26.458333 26.458334"
   version="1.1"
   id="svg8"
   inkscape:version="1.0.2 (e86c870879, 2021-01-15)"
   sodipodi:docname="FileIcon-GZIP.svg">
  <defs
     id="defs2" />
  <sodipodi:namedview
     id="base"
     pagecolor="#ffffff"
     bordercolor="#666666"
     borderopacity="1.0"
     inkscape:pageopacity="0.0"
     inkscape:pageshadow="2"
     inkscape:zoom="5.0343909"
     inkscape:cx="12.732127"
     inkscape:cy="57.020899"
     inkscape:document-units="mm"
     inkscape:current-layer="layer1"
     inkscape:document-rotation="0"
     showgrid="true"
     units="px"
     inkscape:pagecheckerboard="true"
     inkscape:window-width="1920"
     inkscape:window-height="1016"
     inkscape:window-x="0"
     inkscape:window-y="33"
     inkscape:window-maximized="1">
    <inkscape:grid
       type="xygrid"
       id="grid833" />
  </sodipodi:namedview>
  <metadata
     id="metadata5">
    <rdf:RDF>
      <cc:Work
         rdf:about="">
        <dc:format>image/svg+xml</dc:format>
        <dc:type
           rdf:resource="http://purl.org/dc/dcmitype/StillImage" />
        <dc:title></dc:title>
      </cc:Work>
    </rdf:RDF>
  </metadata>
  <g
     inkscape:label="Ebene 1"
     inkscape:groupmode="layer"
     id="layer1">
    <path
       style="fill:#f6d16f;fill-opacity:1;stroke:none;stroke-width:0;stroke-linecap:butt;stroke-linejoin:miter;stroke-miterlimit:4;stroke-dasharray:none;stroke-opacity:1"
       d="M 6.6145832,23.8125 V 2.6458333 C 6.6145833,1.3229167 7.9375,0 9.2604166,0 H 20.372917 l 6.085416,6.0854167 0,17.7270833 c 0,1.322917 -1.322916,2.645833 -2.645833,2.645833 H 9.2604166 c -1.3229166,0 -2.6458333,-1.322916 -2.6458334,-2.645833 z"
       id="path837"
       sodipodi:nodetypes="ccccccccc" />
    <path
       style="fill:#000000;fill-opacity:0.2;stroke:none;stroke-width:0;stroke-linecap:butt;stroke-linejoin:miter;stroke-miterlimit:4;stroke-dasharray:none;stroke-opacity:1"
       d="m 20.372917,0 6.085416,6.0854167 H 23.01875 c -1.322916,0 -2.645832,-1.3229167 -2.645833,-2.6458334 z"
       id="path841"
       sodipodi:nodetypes="ccccc" />
    <path
       style="fill:#93ac94;fill-opacity:1;stroke:none;stroke-width:0;stroke-linecap:butt;stroke-linejoin:miter;stroke-miterlimit:4;stroke-dasharray:none;stroke-opacity:1"
       d="m 1.3229166,18.520833 v 5.820833 l 0.79375,0.79375 H 17.197916 v -5.820833 l -0.79375,-0.79375 z"
       id="path1007" />
    <g
       id="g1010">
      <path
         style="fill:#000000;fill-opacity:0.0666667;stroke:none;stroke-width:0.264583px;stroke-linecap:butt;stroke-linejoin:miter;stroke-opacity:1"
         d="m 1.3229176,24.341667 0.79375,0.79375 H 17.197917 v -5.820833 l -0.79375,-0.793751 v 5.820834 z"
         id="path1003" />
    </g>
    <path
       style="fill:#000000;fill-opacity:0.0666667;stroke:none;stroke-width:0;stroke-linecap:butt;stroke-linejoin:miter;stroke-miterlimit:4;stroke-dasharray:none;stroke-opacity:1"
       d="m 6.6145832,23.8125 c 10e-8,1.322917 1.3229168,2.116667 2.6458334,2.116666 l 14.5520834,1e-6 c 0.79375,0 2.116667,-1.058334 2.116667,-2.116667 V 6.0854167 l -0.264584,-0.79375 0.79375,0.7937499 V 23.8125 c 0,1.322917 -1.322916,2.645833 -2.645833,2.645833 H 9.2604166 c -1.3229166,0 -2.6458333,-1.322916 -2.6458334,-2.645833 z"
       id="path1027"
       sodipodi:nodetypes="ccccccccccc" />
    <path
       style="fill:#ffffff;fill-opacity:1;stroke:none;stroke-width:0;stroke-linecap:butt;stroke-linejoin:miter;stroke-miterlimit:4;stroke-dasharray:none;stroke-opacity:1"
       d="m 21.166666,0.79374999 h 3.175 C 25.4,0.79375 25.664583,1.3229167 25.664583,2.1166666 v 3.175 z"
       id="path1029"
       sodipodi:nodetypes="ccccc" />
    <rect
       style="fill:#8c8c8c;fill-opacity:1;stroke:none;stroke-width:0;stroke-linejoin:round;stroke-miterlimit:4;stroke-dasharray:none"
       id="rect1049"
       width="1.3229166"
       height="1.3229166"
       x="6.6145835"
       y="7.9374995" />
    <rect
       style="fill:#aaaaaa;fill-opacity:1;stroke:none;stroke-width:0;stroke-linejoin:round;stroke-miterlimit:4;stroke-dasharray:none"
       id="rect1049-3"
       width="1.3229166"
       height="1.3229166"
       x="7.9375"
       y="9.260416" />
    <rect
       style="fill:#8c8c8c;fill-opacity:1;stroke:none;stroke-width:0;stroke-linejoin:round;stroke-miterlimit:4;stroke-dasharray:none"
       id="rect1049-6"
       width="1.3229166"
       height="1.3229166"
       x="9.260416"
       y="7.9374995" />
    <rect
       style="fill:#aaaaaa;fill-opacity:1;stroke:none;stroke-width:0;stroke-linejoin:round;stroke-miterlimit:4;stroke-dasharray:none"
       id="rect1049-3-7"
       width="1.3229166"
       height="1.3229166"
       x="10.583332"
       y="9.260416" />
    <rect
       style="fill:#8c8c8c;fill-opacity:1;stroke:none;stroke-width:0;stroke-linejoin:round;stroke-miterlimit:4;stroke-dasharray:none"
       id="rect1049-5"
       width="1.3229166"
       height="1.3229166"
       x="11.90625"
       y="7.9375" />
    <rect
       style="fill:#aaaaaa;fill-opacity:1;stroke:none;stroke-width:0;stroke-linejoin:round;stroke-miterlimit:4;stroke-dasharray:none"
       id="rect1049-3-3"
       width="1.3229166"
       height="1.3229166"
       x="13.229166"
       y="9.260417" />
    <rect
       style="fill:#8c8c8c;fill-opacity:1;stroke:none;stroke-width:0;stroke-linejoin:round;stroke-miterlimit:4;stroke-dasharray:none"
       id="rect1049-56"
       width="1.3229166"
       height="1.3229166"
       x="14.552084"
       y="7.9375" />
    <rect
       style="fill:#aaaaaa;fill-opacity:1;stroke:none;stroke-width:0;stroke-linejoin:round;stroke-miterlimit:4;stroke-dasharray:none"
       id="rect1049-3-2"
       width="1.3229166"
       height="1.3229166"
       x="15.875"
       y="9.260416" />
    <rect
       style="fill:#8c8c8c;fill-opacity:1;stroke:none;stroke-width:0;stroke-linejoin:round;stroke-miterlimit:4;stroke-dasharray:none"
       id="rect1049-9"
       width="1.3229166"
       height="1.3229166"
       x="17.197918"
       y="7.9375005" />
    <rect
       style="fill:#aaaaaa;fill-opacity:1;stroke:none;stroke-width:0;stroke-linejoin:round;stroke-miterlimit:4;stroke-dasharray:none"
       id="rect1049-3-1"
       width="1.3229166"
       height="1.3229166"
       x="18.520834"
       y="9.260417" />
    <rect
       style="fill:#8c8c8c;fill-opacity:1;stroke:none;stroke-width:0;stroke-linejoin:round;stroke-miterlimit:4;stroke-dasharray:none"
       id="rect1049-2"
       width="1.3229166"
       height="1.3229166"
       x="19.843752"
       y="7.9375" />
    <path
       id="path1143"
       style="fill:#8c8c8c;fill-opacity:1;stroke:none;stroke-width:0;stroke-linejoin:round;stroke-miterlimit:4;stroke-dasharray:none"
       d="m 83.000001,35 c 0,3 2,5.000001 4.999999,5.000001 3.000001,0 5.000001,-2.000001 5.000001,-5.000001 0,-3 -2,-5 -5.000001,-5 -2.999999,0 -4.999999,2 -4.999999,5 z M 88,32 c 2.000001,0 3.000001,1 3.000001,3 0,2 -1,3 -3,3 -2,0 -3,-1 -3,-3 0,-2 1,-3 2.999999,-3 z"
       transform="scale(0.26458333)"
       sodipodi:nodetypes="cssccsssss" />
    <text
       xml:space="preserve"
       style="font-size:10.5833px;line-height:2;font-family:sans-serif;fill:#f2f2f2;stroke-width:0.264583"
       x="2.0573061"
       y="23.562551"
       id="text1155"><tspan
         sodipodi:role="line"
         id="tspan1153"
         x="2.0573061"
         y="23.562551"
         style="font-style:normal;font-variant:normal;font-weight:600;font-stretch:normal;font-size:6.08542px;font-family:'Futura PT';-inkscape-font-specification:'Futura PT, Semi-Bold';font-variant-ligatures:normal;font-variant-caps:normal;font-variant-numeric:normal;font-variant-east-asian:normal;fill:#f2f2f2;stroke-width:0.264583">GZIP</tspan></text>
  </g>
</svg>
